<mxfile host="65bd71144e">
    <diagram id="EV65yb_jjW9IthwbfgZv" name="Page-1">
        <mxGraphModel dx="1321" dy="952" grid="1" gridSize="10" guides="1" tooltips="1" connect="1" arrows="1" fold="1" page="1" pageScale="1" pageWidth="827" pageHeight="1169" math="0" shadow="0">
            <root>
                <mxCell id="0"/>
                <mxCell id="1" parent="0"/>
                <mxCell id="HSNwQ3O_0nQfxcZKa0X5-3" style="edgeStyle=orthogonalEdgeStyle;rounded=1;orthogonalLoop=1;jettySize=auto;html=1;exitX=0.25;exitY=0;exitDx=0;exitDy=0;fontSize=13;shape=flexArrow;" parent="1" source="1uaCHu3Pwth4PD7MlHN_-7" target="B6evqfIJlXMsKJtfPlcZ-13" edge="1">
                    <mxGeometry relative="1" as="geometry"/>
                </mxCell>
                <mxCell id="HSNwQ3O_0nQfxcZKa0X5-4" style="edgeStyle=orthogonalEdgeStyle;rounded=1;orthogonalLoop=1;jettySize=auto;html=1;exitX=0.75;exitY=0;exitDx=0;exitDy=0;entryX=0.5;entryY=1;entryDx=0;entryDy=0;fontSize=13;shape=flexArrow;" parent="1" source="1uaCHu3Pwth4PD7MlHN_-7" target="HSNwQ3O_0nQfxcZKa0X5-1" edge="1">
                    <mxGeometry relative="1" as="geometry"/>
                </mxCell>
                <mxCell id="1uaCHu3Pwth4PD7MlHN_-7" value="" style="rounded=1;whiteSpace=wrap;html=1;" parent="1" vertex="1">
                    <mxGeometry x="121" y="450" width="550" height="260" as="geometry"/>
                </mxCell>
                <mxCell id="B6evqfIJlXMsKJtfPlcZ-7" value="" style="edgeStyle=orthogonalEdgeStyle;rounded=1;orthogonalLoop=1;jettySize=auto;html=1;fontSize=13;" parent="1" source="1uaCHu3Pwth4PD7MlHN_-1" target="B6evqfIJlXMsKJtfPlcZ-6" edge="1">
                    <mxGeometry relative="1" as="geometry"/>
                </mxCell>
                <mxCell id="1uaCHu3Pwth4PD7MlHN_-1" value="&lt;b&gt;&lt;font style=&quot;font-size: 13px&quot;&gt;BERT&lt;br&gt;(Embeddings + Encoder + Pooler)&lt;br&gt;&lt;/font&gt;&lt;/b&gt;" style="rounded=1;whiteSpace=wrap;html=1;" parent="1" vertex="1">
                    <mxGeometry x="176" y="611" width="440" height="60" as="geometry"/>
                </mxCell>
                <mxCell id="1uaCHu3Pwth4PD7MlHN_-12" value="&lt;b&gt;&lt;font style=&quot;font-size: 19px&quot;&gt;SHARED&lt;/font&gt;&lt;/b&gt;" style="text;html=1;strokeColor=none;fillColor=none;align=center;verticalAlign=middle;whiteSpace=wrap;rounded=1;" parent="1" vertex="1">
                    <mxGeometry x="140" y="460" width="100" height="40" as="geometry"/>
                </mxCell>
                <mxCell id="HSNwQ3O_0nQfxcZKa0X5-12" style="edgeStyle=orthogonalEdgeStyle;shape=flexArrow;rounded=1;orthogonalLoop=1;jettySize=auto;html=1;exitX=0.5;exitY=0;exitDx=0;exitDy=0;entryX=0.25;entryY=1;entryDx=0;entryDy=0;fontSize=19;" parent="1" source="1uaCHu3Pwth4PD7MlHN_-13" target="B6evqfIJlXMsKJtfPlcZ-8" edge="1">
                    <mxGeometry relative="1" as="geometry"/>
                </mxCell>
                <mxCell id="1uaCHu3Pwth4PD7MlHN_-13" value="&lt;b&gt;STATE&lt;/b&gt;" style="text;html=1;strokeColor=none;fillColor=none;align=center;verticalAlign=middle;whiteSpace=wrap;rounded=1;fontSize=19;" parent="1" vertex="1">
                    <mxGeometry x="222" y="879" width="73" height="30" as="geometry"/>
                </mxCell>
                <mxCell id="HSNwQ3O_0nQfxcZKa0X5-13" style="edgeStyle=orthogonalEdgeStyle;shape=flexArrow;rounded=1;orthogonalLoop=1;jettySize=auto;html=1;exitX=0.5;exitY=0;exitDx=0;exitDy=0;entryX=0.75;entryY=1;entryDx=0;entryDy=0;fontSize=19;" parent="1" source="1uaCHu3Pwth4PD7MlHN_-14" target="B6evqfIJlXMsKJtfPlcZ-8" edge="1">
                    <mxGeometry relative="1" as="geometry"/>
                </mxCell>
                <mxCell id="1uaCHu3Pwth4PD7MlHN_-14" value="&lt;b&gt;ACTION&lt;/b&gt;" style="text;html=1;strokeColor=none;fillColor=none;align=center;verticalAlign=middle;whiteSpace=wrap;rounded=1;fontSize=19;" parent="1" vertex="1">
                    <mxGeometry x="493.5" y="879" width="79" height="30" as="geometry"/>
                </mxCell>
                <mxCell id="B6evqfIJlXMsKJtfPlcZ-6" value="&lt;b&gt;&lt;font style=&quot;font-size: 13px&quot;&gt;Fully Connected&lt;/font&gt;&lt;/b&gt;" style="rounded=1;whiteSpace=wrap;html=1;" parent="1" vertex="1">
                    <mxGeometry x="176" y="507" width="440" height="60" as="geometry"/>
                </mxCell>
                <mxCell id="B6evqfIJlXMsKJtfPlcZ-8" value="" style="rounded=1;whiteSpace=wrap;html=1;fontSize=13;" parent="1" vertex="1">
                    <mxGeometry x="120" y="769" width="551" height="60" as="geometry"/>
                </mxCell>
                <mxCell id="B6evqfIJlXMsKJtfPlcZ-10" value="" style="shape=flexArrow;endArrow=classic;html=1;rounded=1;fontSize=13;exitX=0.75;exitY=0;exitDx=0;exitDy=0;entryX=0.75;entryY=1;entryDx=0;entryDy=0;" parent="1" source="B6evqfIJlXMsKJtfPlcZ-8" target="1uaCHu3Pwth4PD7MlHN_-7" edge="1">
                    <mxGeometry width="50" height="50" relative="1" as="geometry">
                        <mxPoint x="372" y="760" as="sourcePoint"/>
                        <mxPoint x="422" y="710" as="targetPoint"/>
                    </mxGeometry>
                </mxCell>
                <mxCell id="B6evqfIJlXMsKJtfPlcZ-11" value="" style="shape=flexArrow;endArrow=classic;html=1;rounded=1;fontSize=13;exitX=0.25;exitY=0;exitDx=0;exitDy=0;entryX=0.25;entryY=1;entryDx=0;entryDy=0;" parent="1" source="B6evqfIJlXMsKJtfPlcZ-8" target="1uaCHu3Pwth4PD7MlHN_-7" edge="1">
                    <mxGeometry width="50" height="50" relative="1" as="geometry">
                        <mxPoint x="372" y="760" as="sourcePoint"/>
                        <mxPoint x="292" y="740" as="targetPoint"/>
                    </mxGeometry>
                </mxCell>
                <mxCell id="B6evqfIJlXMsKJtfPlcZ-12" value="&lt;b&gt;&lt;font style=&quot;font-size: 19px&quot;&gt;TOKENIZER&lt;/font&gt;&lt;/b&gt;" style="text;html=1;strokeColor=none;fillColor=none;align=center;verticalAlign=middle;whiteSpace=wrap;rounded=1;" parent="1" vertex="1">
                    <mxGeometry x="319" y="779" width="154" height="40" as="geometry"/>
                </mxCell>
                <mxCell id="HSNwQ3O_0nQfxcZKa0X5-7" style="edgeStyle=orthogonalEdgeStyle;shape=flexArrow;rounded=1;orthogonalLoop=1;jettySize=auto;html=1;exitX=0.5;exitY=0;exitDx=0;exitDy=0;fontSize=13;entryX=0.25;entryY=1;entryDx=0;entryDy=0;" parent="1" source="B6evqfIJlXMsKJtfPlcZ-13" target="17" edge="1">
                    <mxGeometry relative="1" as="geometry">
                        <mxPoint x="297" y="260" as="targetPoint"/>
                    </mxGeometry>
                </mxCell>
                <mxCell id="B6evqfIJlXMsKJtfPlcZ-13" value="&lt;b&gt;&lt;font style=&quot;font-size: 19px&quot;&gt;STATE&lt;/font&gt;&lt;br&gt;Fully Connected&lt;br&gt;&lt;/b&gt;" style="rounded=1;whiteSpace=wrap;html=1;fontSize=13;" parent="1" vertex="1">
                    <mxGeometry x="199" y="326" width="120" height="60" as="geometry"/>
                </mxCell>
                <mxCell id="HSNwQ3O_0nQfxcZKa0X5-8" style="edgeStyle=orthogonalEdgeStyle;shape=flexArrow;rounded=1;orthogonalLoop=1;jettySize=auto;html=1;fontSize=13;exitX=0.5;exitY=0;exitDx=0;exitDy=0;" parent="1" source="B6evqfIJlXMsKJtfPlcZ-14" edge="1">
                    <mxGeometry relative="1" as="geometry">
                        <mxPoint x="400" y="49" as="targetPoint"/>
                        <mxPoint x="402" y="80" as="sourcePoint"/>
                    </mxGeometry>
                </mxCell>
                <mxCell id="B6evqfIJlXMsKJtfPlcZ-14" value="&lt;b&gt;&lt;font style=&quot;font-size: 19px&quot;&gt;OUTPUT&lt;/font&gt;&lt;br&gt;Fully Connected&lt;/b&gt;" style="rounded=1;whiteSpace=wrap;html=1;fontSize=13;" parent="1" vertex="1">
                    <mxGeometry x="203.5" y="95" width="393" height="60" as="geometry"/>
                </mxCell>
                <mxCell id="HSNwQ3O_0nQfxcZKa0X5-6" style="edgeStyle=orthogonalEdgeStyle;shape=flexArrow;rounded=1;orthogonalLoop=1;jettySize=auto;html=1;exitX=0.5;exitY=0;exitDx=0;exitDy=0;fontSize=13;entryX=0.75;entryY=1;entryDx=0;entryDy=0;" parent="1" source="HSNwQ3O_0nQfxcZKa0X5-1" target="17" edge="1">
                    <mxGeometry relative="1" as="geometry">
                        <mxPoint x="494" y="260" as="targetPoint"/>
                    </mxGeometry>
                </mxCell>
                <mxCell id="HSNwQ3O_0nQfxcZKa0X5-1" value="&lt;b&gt;&lt;font style=&quot;font-size: 19px&quot;&gt;ACTION&lt;/font&gt;&lt;br&gt;Fully Connected&lt;br&gt;&lt;/b&gt;" style="rounded=1;whiteSpace=wrap;html=1;fontSize=13;" parent="1" vertex="1">
                    <mxGeometry x="473" y="326" width="120" height="60" as="geometry"/>
                </mxCell>
                <mxCell id="2" value="&lt;div&gt;B: batch size&lt;/div&gt;&lt;div&gt;L: sequence length&lt;/div&gt;&lt;div&gt;T: sequence tokens length&lt;/div&gt;" style="text;html=1;strokeColor=none;fillColor=none;align=left;verticalAlign=middle;whiteSpace=wrap;rounded=1;" parent="1" vertex="1">
                    <mxGeometry x="606" y="840" width="221" height="90" as="geometry"/>
                </mxCell>
                <mxCell id="3" value="(B,L&lt;sub&gt;2&lt;/sub&gt;)" style="text;html=1;strokeColor=none;fillColor=none;align=center;verticalAlign=middle;whiteSpace=wrap;rounded=1;" parent="1" vertex="1">
                    <mxGeometry x="503" y="900" width="60" height="30" as="geometry"/>
                </mxCell>
                <mxCell id="4" value="(B,L&lt;sub&gt;1&lt;/sub&gt;)" style="text;html=1;strokeColor=none;fillColor=none;align=center;verticalAlign=middle;whiteSpace=wrap;rounded=1;" parent="1" vertex="1">
                    <mxGeometry x="229" y="900" width="60" height="30" as="geometry"/>
                </mxCell>
                <mxCell id="5" value="(B,T&lt;sub&gt;1&lt;/sub&gt;)" style="text;html=1;strokeColor=none;fillColor=none;align=center;verticalAlign=middle;whiteSpace=wrap;rounded=1;" parent="1" vertex="1">
                    <mxGeometry x="259" y="730" width="60" height="30" as="geometry"/>
                </mxCell>
                <mxCell id="6" value="(B,T&lt;sub&gt;2&lt;/sub&gt;)" style="text;html=1;strokeColor=none;fillColor=none;align=center;verticalAlign=middle;whiteSpace=wrap;rounded=1;" parent="1" vertex="1">
                    <mxGeometry x="533" y="730" width="60" height="30" as="geometry"/>
                </mxCell>
                <mxCell id="7" value="(B,T)" style="text;html=1;strokeColor=none;fillColor=none;align=center;verticalAlign=middle;whiteSpace=wrap;rounded=1;" parent="1" vertex="1">
                    <mxGeometry x="397.5" y="671" width="37.5" height="30" as="geometry"/>
                </mxCell>
                <mxCell id="9" value="(B,hidden_size)" style="text;html=1;strokeColor=none;fillColor=none;align=center;verticalAlign=middle;whiteSpace=wrap;rounded=1;" parent="1" vertex="1">
                    <mxGeometry x="397.5" y="569.5" width="96" height="30" as="geometry"/>
                </mxCell>
                <mxCell id="11" value="(B, out_features)" style="text;html=1;strokeColor=none;fillColor=none;align=center;verticalAlign=middle;whiteSpace=wrap;rounded=1;" parent="1" vertex="1">
                    <mxGeometry x="397.5" y="470" width="100" height="30" as="geometry"/>
                </mxCell>
                <mxCell id="12" value="(B, shared_out_dim)" style="text;html=1;strokeColor=none;fillColor=none;align=center;verticalAlign=middle;whiteSpace=wrap;rounded=1;" parent="1" vertex="1">
                    <mxGeometry x="540" y="410" width="140" height="30" as="geometry"/>
                </mxCell>
                <mxCell id="13" value="(B, shared_out_dim)" style="text;html=1;strokeColor=none;fillColor=none;align=center;verticalAlign=middle;whiteSpace=wrap;rounded=1;" parent="1" vertex="1">
                    <mxGeometry x="259" y="410" width="140" height="30" as="geometry"/>
                </mxCell>
                <mxCell id="14" value="(B, action_layers)" style="text;html=1;strokeColor=none;fillColor=none;align=center;verticalAlign=middle;whiteSpace=wrap;rounded=1;" parent="1" vertex="1">
                    <mxGeometry x="533" y="290" width="117" height="30" as="geometry"/>
                </mxCell>
                <mxCell id="15" value="(B, state_layers)" style="text;html=1;strokeColor=none;fillColor=none;align=center;verticalAlign=middle;whiteSpace=wrap;rounded=1;" parent="1" vertex="1">
                    <mxGeometry x="289" y="290" width="140" height="30" as="geometry"/>
                </mxCell>
                <mxCell id="16" value="(B)" style="text;html=1;strokeColor=none;fillColor=none;align=center;verticalAlign=middle;whiteSpace=wrap;rounded=1;" parent="1" vertex="1">
                    <mxGeometry x="330" y="10" width="140" height="30" as="geometry"/>
                </mxCell>
                <mxCell id="17" value="&lt;i&gt;&lt;font style=&quot;font-size: 17px&quot;&gt;concatenate&lt;/font&gt;&lt;/i&gt;" style="rounded=1;whiteSpace=wrap;html=1;fontSize=13;" vertex="1" parent="1">
                    <mxGeometry x="280" y="200" width="240" height="40" as="geometry"/>
                </mxCell>
                <mxCell id="18" style="edgeStyle=orthogonalEdgeStyle;shape=flexArrow;rounded=1;orthogonalLoop=1;jettySize=auto;html=1;fontSize=13;exitX=0.5;exitY=0;exitDx=0;exitDy=0;entryX=0.5;entryY=1;entryDx=0;entryDy=0;" edge="1" parent="1" source="17" target="B6evqfIJlXMsKJtfPlcZ-14">
                    <mxGeometry relative="1" as="geometry">
                        <mxPoint x="395.21000000000004" y="166.03" as="sourcePoint"/>
                        <mxPoint x="410" y="170" as="targetPoint"/>
                    </mxGeometry>
                </mxCell>
                <mxCell id="20" value="(B,state_layers +&amp;nbsp;action_layers)" style="text;html=1;strokeColor=none;fillColor=none;align=center;verticalAlign=middle;whiteSpace=wrap;rounded=1;" vertex="1" parent="1">
                    <mxGeometry x="410" y="162" width="200" height="30" as="geometry"/>
                </mxCell>
            </root>
        </mxGraphModel>
    </diagram>
</mxfile>